<svg width="239" height="31" viewBox="0 0 239 31" fill="none" xmlns="http://www.w3.org/2000/svg">
<g clip-path="url(#clip0_1_342)">
<g clip-path="url(#clip1_1_342)">
<path d="M12 18.2499C15.3089 18.2499 17.9999 15.5589 17.9999 12.2499C17.9999 8.94097 15.3089 6.25 12 6.25C8.69102 6.25 6.00005 8.94097 6.00005 12.2499C6.00005 15.5589 8.69102 18.2499 12 18.2499ZM12 9.24997C13.6545 9.24997 14.9999 10.5955 14.9999 12.2499C14.9999 13.9044 13.6545 15.2499 12 15.2499C10.3455 15.2499 9.00001 13.9044 9.00001 12.2499C9.00001 10.5955 10.3455 9.24997 12 9.24997Z" fill="#8EC2F2"/>
<path d="M11.13 29.9707C11.3839 30.152 11.688 30.2494 12 30.2494C12.312 30.2494 12.6161 30.152 12.87 29.9707C13.326 29.6482 24.0434 21.9098 23.9999 12.2499C23.9999 5.63344 18.6164 0.25 12 0.25C5.38357 0.25 0.000132055 5.63344 0.000132055 12.2424C-0.0433675 21.9098 10.674 29.6482 11.13 29.9707ZM12 3.24997C16.9634 3.24997 20.9999 7.28642 20.9999 12.2574C21.0314 18.9143 14.418 24.8917 12 26.8522C9.58353 24.8902 2.9686 18.9113 3.0001 12.2499C3.0001 7.28642 7.03655 3.24997 12 3.24997Z" fill="#8EC2F2"/>
</g>
<path d="M43.352 13.8588H41.616V11.8848H39.908V13.8588H36.702L41.252 7.82476H39.306L34.476 14.1388V15.3988H39.852V17.6248H41.616V15.3988H43.352V13.8588ZM47.3429 11.6188H46.4049L46.6149 9.35076H50.8289V7.82476H45.0749L44.5709 13.1588H46.9369C48.9669 13.1588 49.5689 13.7468 49.5689 14.6848C49.5689 15.6088 48.7989 16.1828 47.4969 16.1828C46.3909 16.1828 45.3269 15.8048 44.6129 15.2168L43.8429 16.6308C44.7389 17.3448 46.1389 17.7648 47.5249 17.7648C50.1569 17.7648 51.4029 16.3368 51.4029 14.6148C51.4029 12.8788 50.2409 11.6188 47.3429 11.6188ZM52.1487 7.82476V9.35076H54.2207V17.6248H56.0407V7.82476H52.1487ZM57.9608 7.82476V11.0308H59.6548V9.36476H63.5048L59.8228 17.6248H61.7688L65.5768 9.04276V7.82476H57.9608ZM84.2575 7.82476L81.7515 15.3148L79.2735 7.82476H77.5935L75.0595 15.2728L72.6235 7.82476H70.7335L73.9815 17.6248H75.9275L78.3915 10.3728L80.8135 17.6248H82.7455L85.9935 7.82476H84.2575ZM89.8036 10.0648C88.5996 10.0648 87.4376 10.3728 86.6396 10.9888L87.3256 12.2628C87.8856 11.8008 88.7536 11.5208 89.5936 11.5208C90.8396 11.5208 91.4556 12.1228 91.4556 13.1448V13.2568H89.5236C87.2556 13.2568 86.4156 14.2368 86.4156 15.4828C86.4156 16.7848 87.4936 17.7228 89.2016 17.7228C90.3216 17.7228 91.1336 17.3588 91.5536 16.7148V17.6248H93.2056V13.2428C93.2056 11.0868 91.9596 10.0648 89.8036 10.0648ZM89.5656 16.4488C88.6696 16.4488 88.1376 16.0428 88.1376 15.4128C88.1376 14.8668 88.4596 14.4188 89.6496 14.4188H91.4556V15.2868C91.1616 16.0568 90.4196 16.4488 89.5656 16.4488ZM97.9615 17.7228C100.062 17.7228 101.35 16.8128 101.35 15.4128C101.35 12.4868 96.7295 13.8308 96.7295 12.3188C96.7295 11.8288 97.2335 11.4788 98.2975 11.4788C99.0115 11.4788 99.7255 11.6188 100.44 12.0388L101.112 10.7088C100.44 10.3028 99.3055 10.0648 98.3115 10.0648C96.2955 10.0648 95.0215 10.9888 95.0215 12.4028C95.0215 15.3848 99.6415 14.0408 99.6415 15.4688C99.6415 15.9868 99.1795 16.2948 98.0735 16.2948C97.1355 16.2948 96.1275 15.9868 95.4695 15.5528L94.7975 16.8828C95.4695 17.3588 96.7155 17.7228 97.9615 17.7228ZM107.299 10.0648C106.263 10.0648 105.381 10.4008 104.807 11.0168V7.23676H103.057V17.6248H104.807V13.8448C104.807 12.3468 105.647 11.5908 106.893 11.5908C108.013 11.5908 108.671 12.2348 108.671 13.5648V17.6248H110.421V13.3408C110.421 11.0868 109.091 10.0648 107.299 10.0648ZM113.723 8.91676C114.381 8.91676 114.843 8.44076 114.843 7.82476C114.843 7.25076 114.367 6.81676 113.723 6.81676C113.079 6.81676 112.603 7.27876 112.603 7.86676C112.603 8.45476 113.079 8.91676 113.723 8.91676ZM112.841 17.6248H114.591V10.1488H112.841V17.6248ZM121.329 10.0648C120.237 10.0648 119.327 10.4288 118.753 11.1148V10.1488H117.087V17.6248H118.837V13.8448C118.837 12.3468 119.677 11.5908 120.923 11.5908C122.043 11.5908 122.701 12.2348 122.701 13.5648V17.6248H124.451V13.3408C124.451 11.0868 123.121 10.0648 121.329 10.0648ZM132.694 10.1488V11.1428C132.078 10.4008 131.154 10.0648 130.104 10.0648C127.962 10.0648 126.324 11.4928 126.324 13.6628C126.324 15.8328 127.962 17.2888 130.104 17.2888C131.112 17.2888 131.994 16.9668 132.61 16.2948V16.6868C132.61 18.1988 131.882 18.9548 130.23 18.9548C129.194 18.9548 128.13 18.6048 127.472 18.0588L126.688 19.3748C127.542 20.0748 128.928 20.4388 130.328 20.4388C132.946 20.4388 134.36 19.2068 134.36 16.4908V10.1488H132.694ZM130.37 15.8048C129.04 15.8048 128.088 14.9368 128.088 13.6628C128.088 12.4028 129.04 11.5488 130.37 11.5488C131.686 11.5488 132.638 12.4028 132.638 13.6628C132.638 14.9368 131.686 15.8048 130.37 15.8048ZM140.865 15.9728C140.599 16.1828 140.249 16.2808 139.885 16.2808C139.213 16.2808 138.849 15.8888 138.849 15.1608V11.6048H140.851V10.2048H138.849V8.49676H137.099V10.2048H135.867V11.6048H137.099V15.2028C137.099 16.8548 138.037 17.7228 139.675 17.7228C140.305 17.7228 140.935 17.5548 141.355 17.2188L140.865 15.9728ZM146.108 17.7228C148.432 17.7228 150.098 16.1268 150.098 13.8868C150.098 11.6468 148.432 10.0648 146.108 10.0648C143.812 10.0648 142.132 11.6468 142.132 13.8868C142.132 16.1268 143.812 17.7228 146.108 17.7228ZM146.108 16.2248C144.848 16.2248 143.896 15.3148 143.896 13.8868C143.896 12.4588 144.848 11.5488 146.108 11.5488C147.382 11.5488 148.334 12.4588 148.334 13.8868C148.334 15.3148 147.382 16.2248 146.108 16.2248ZM156.213 10.0648C155.121 10.0648 154.211 10.4288 153.637 11.1148V10.1488H151.971V17.6248H153.721V13.8448C153.721 12.3468 154.561 11.5908 155.807 11.5908C156.927 11.5908 157.585 12.2348 157.585 13.5648V17.6248H159.335V13.3408C159.335 11.0868 158.005 10.0648 156.213 10.0648ZM173.329 17.6248H175.233L170.809 7.82476H169.017L164.607 17.6248H166.483L167.449 15.3568H172.349L173.329 17.6248ZM168.065 13.9288L169.899 9.64476L171.747 13.9288H168.065ZM181.448 10.1488L179.054 15.6928L176.73 10.1488H174.91L178.116 17.6248H179.922L183.128 10.1488H181.448ZM191.245 13.9288C191.245 11.5908 189.649 10.0648 187.465 10.0648C185.239 10.0648 183.601 11.6608 183.601 13.8868C183.601 16.1128 185.225 17.7228 187.731 17.7228C189.019 17.7228 190.069 17.3028 190.741 16.5048L189.803 15.4268C189.271 15.9728 188.613 16.2388 187.773 16.2388C186.471 16.2388 185.561 15.5388 185.351 14.4468H191.217C191.231 14.2788 191.245 14.0688 191.245 13.9288ZM187.465 11.4648C188.613 11.4648 189.439 12.2068 189.579 13.2848H185.337C185.505 12.1928 186.331 11.4648 187.465 11.4648ZM193.686 17.7228C194.316 17.7228 194.834 17.2328 194.834 16.5608C194.834 15.8608 194.316 15.3988 193.686 15.3988C193.056 15.3988 192.538 15.8608 192.538 16.5608C192.538 17.2328 193.056 17.7228 193.686 17.7228ZM46.04 41.6248L46.026 31.8248H44.528L40.706 38.3208L36.814 31.8248H35.316V41.6248H37.052V35.2128L40.272 40.5048H41.084L44.304 35.1288L44.318 41.6248H46.04ZM51.5751 34.0648C50.3711 34.0648 49.2091 34.3728 48.4111 34.9888L49.0971 36.2628C49.6571 35.8008 50.5251 35.5208 51.3651 35.5208C52.6111 35.5208 53.2271 36.1228 53.2271 37.1448V37.2568H51.2951C49.0271 37.2568 48.1871 38.2368 48.1871 39.4828C48.1871 40.7848 49.2651 41.7228 50.9731 41.7228C52.0931 41.7228 52.9051 41.3588 53.3251 40.7148V41.6248H54.9771V37.2428C54.9771 35.0868 53.7311 34.0648 51.5751 34.0648ZM51.3371 40.4488C50.4411 40.4488 49.9091 40.0428 49.9091 39.4128C49.9091 38.8668 50.2311 38.4188 51.4211 38.4188H53.2271V39.2868C52.9331 40.0568 52.1911 40.4488 51.3371 40.4488ZM61.665 34.0648C60.573 34.0648 59.663 34.4288 59.089 35.1148V34.1488H57.423V41.6248H59.173V37.8448C59.173 36.3468 60.013 35.5908 61.259 35.5908C62.379 35.5908 63.037 36.2348 63.037 37.5648V41.6248H64.787V37.3408C64.787 35.0868 63.457 34.0648 61.665 34.0648ZM70.7053 41.7228C72.1613 41.7228 73.3233 41.0928 73.8973 39.9728L72.5533 39.1888C72.1053 39.9028 71.4333 40.2248 70.6913 40.2248C69.4033 40.2248 68.4233 39.3428 68.4233 37.8868C68.4233 36.4448 69.4033 35.5488 70.6913 35.5488C71.4333 35.5488 72.1053 35.8708 72.5533 36.5848L73.8973 35.8008C73.3233 34.6668 72.1613 34.0648 70.7053 34.0648C68.3393 34.0648 66.6593 35.6468 66.6593 37.8868C66.6593 40.1268 68.3393 41.7228 70.7053 41.7228ZM79.7837 34.0648C78.7477 34.0648 77.8657 34.4008 77.2917 35.0168V31.2368H75.5417V41.6248H77.2917V37.8448C77.2917 36.3468 78.1317 35.5908 79.3777 35.5908C80.4977 35.5908 81.1557 36.2348 81.1557 37.5648V41.6248H82.9057V37.3408C82.9057 35.0868 81.5757 34.0648 79.7837 34.0648ZM92.4221 37.9288C92.4221 35.5908 90.8261 34.0648 88.6421 34.0648C86.4161 34.0648 84.7781 35.6608 84.7781 37.8868C84.7781 40.1128 86.4021 41.7228 88.9081 41.7228C90.1961 41.7228 91.2461 41.3028 91.9181 40.5048L90.9801 39.4268C90.4481 39.9728 89.7901 40.2388 88.9501 40.2388C87.6481 40.2388 86.7381 39.5388 86.5281 38.4468H92.3941C92.4081 38.2788 92.4221 38.0688 92.4221 37.9288ZM88.6421 35.4648C89.7901 35.4648 90.6161 36.2068 90.7561 37.2848H86.5141C86.6821 36.1928 87.5081 35.4648 88.6421 35.4648ZM96.6131 41.7228C98.7131 41.7228 100.001 40.8128 100.001 39.4128C100.001 36.4868 95.3811 37.8308 95.3811 36.3188C95.3811 35.8288 95.8851 35.4788 96.9491 35.4788C97.6631 35.4788 98.3771 35.6188 99.0911 36.0388L99.7631 34.7088C99.0911 34.3028 97.9571 34.0648 96.9631 34.0648C94.9471 34.0648 93.6731 34.9888 93.6731 36.4028C93.6731 39.3848 98.2931 38.0408 98.2931 39.4688C98.2931 39.9868 97.8311 40.2948 96.7251 40.2948C95.7871 40.2948 94.7791 39.9868 94.1211 39.5528L93.4491 40.8828C94.1211 41.3588 95.3671 41.7228 96.6131 41.7228ZM105.712 39.9728C105.446 40.1828 105.096 40.2808 104.732 40.2808C104.06 40.2808 103.696 39.8888 103.696 39.1608V35.6048H105.698V34.2048H103.696V32.4968H101.946V34.2048H100.714V35.6048H101.946V39.2028C101.946 40.8548 102.884 41.7228 104.522 41.7228C105.152 41.7228 105.782 41.5548 106.202 41.2188L105.712 39.9728ZM114.624 37.9288C114.624 35.5908 113.028 34.0648 110.844 34.0648C108.618 34.0648 106.98 35.6608 106.98 37.8868C106.98 40.1128 108.604 41.7228 111.11 41.7228C112.398 41.7228 113.448 41.3028 114.12 40.5048L113.182 39.4268C112.65 39.9728 111.992 40.2388 111.152 40.2388C109.85 40.2388 108.94 39.5388 108.73 38.4468H114.596C114.61 38.2788 114.624 38.0688 114.624 37.9288ZM110.844 35.4648C111.992 35.4648 112.818 36.2068 112.958 37.2848H108.716C108.884 36.1928 109.71 35.4648 110.844 35.4648ZM118.171 35.2408V34.1488H116.505V41.6248H118.255V37.9988C118.255 36.4728 119.095 35.6888 120.425 35.6888C120.551 35.6888 120.677 35.7028 120.831 35.7308V34.0648C119.585 34.0648 118.675 34.4568 118.171 35.2408ZM123.021 39.3988C122.377 39.3988 121.887 39.8608 121.887 40.5608C121.887 41.0648 122.153 41.4288 122.545 41.5968L121.985 43.7388H123.119L123.833 41.7648C124.085 41.1208 124.155 40.8688 124.155 40.5608C124.155 39.8748 123.679 39.3988 123.021 39.3988ZM137.134 41.6248H139.262L134.894 36.2068L139.01 31.8248H136.966L132.122 36.8508V31.8248H130.302V41.6248H132.122V39.1188L133.676 37.5228L137.134 41.6248ZM147.233 37.9288C147.233 35.5908 145.637 34.0648 143.453 34.0648C141.227 34.0648 139.589 35.6608 139.589 37.8868C139.589 40.1128 141.213 41.7228 143.719 41.7228C145.007 41.7228 146.057 41.3028 146.729 40.5048L145.791 39.4268C145.259 39.9728 144.601 40.2388 143.761 40.2388C142.459 40.2388 141.549 39.5388 141.339 38.4468H147.205C147.219 38.2788 147.233 38.0688 147.233 37.9288ZM143.453 35.4648C144.601 35.4648 145.427 36.2068 145.567 37.2848H141.325C141.493 36.1928 142.319 35.4648 143.453 35.4648ZM153.356 34.0648C152.264 34.0648 151.354 34.4288 150.78 35.1148V34.1488H149.114V41.6248H150.864V37.8448C150.864 36.3468 151.704 35.5908 152.95 35.5908C154.07 35.5908 154.728 36.2348 154.728 37.5648V41.6248H156.478V37.3408C156.478 35.0868 155.148 34.0648 153.356 34.0648ZM162.902 39.9728C162.636 40.1828 162.286 40.2808 161.922 40.2808C161.25 40.2808 160.886 39.8888 160.886 39.1608V35.6048H162.888V34.2048H160.886V32.4968H159.136V34.2048H157.904V35.6048H159.136V39.2028C159.136 40.8548 160.074 41.7228 161.712 41.7228C162.342 41.7228 162.972 41.5548 163.392 41.2188L162.902 39.9728ZM170.52 34.1488V37.9288C170.52 39.4268 169.694 40.1828 168.476 40.1828C167.37 40.1828 166.726 39.5388 166.726 38.1808V34.1488H164.976V38.4188C164.976 40.6728 166.278 41.7228 168.196 41.7228C169.162 41.7228 170.044 41.3588 170.604 40.6728V41.6248H172.27V34.1488H170.52ZM178.191 41.7228C179.647 41.7228 180.809 41.0928 181.383 39.9728L180.039 39.1888C179.591 39.9028 178.919 40.2248 178.177 40.2248C176.889 40.2248 175.909 39.3428 175.909 37.8868C175.909 36.4448 176.889 35.5488 178.177 35.5488C178.919 35.5488 179.591 35.8708 180.039 36.5848L181.383 35.8008C180.809 34.6668 179.647 34.0648 178.191 34.0648C175.825 34.0648 174.145 35.6468 174.145 37.8868C174.145 40.1268 175.825 41.7228 178.191 41.7228ZM188.669 41.6248H190.797L187.381 37.2848L190.503 34.1488H188.403L184.777 37.5088V31.2368H183.027V41.6248H184.777V39.6508L186.079 38.4188L188.669 41.6248ZM197.024 34.1488L194.658 39.6788L192.306 34.1488H190.486L193.748 41.6528L193.622 41.9468C193.286 42.6888 192.922 42.9828 192.306 42.9828C191.83 42.9828 191.354 42.7868 191.018 42.4648L190.318 43.7528C190.794 44.1868 191.578 44.4388 192.32 44.4388C193.566 44.4388 194.518 43.9208 195.204 42.2268L198.704 34.1488H197.024ZM38.788 59.8708L41.168 57.0428V55.8248H34.49V57.3508H38.942L36.716 59.9968V61.2428H37.612C39.096 61.2428 39.74 61.8168 39.74 62.6988C39.74 63.6088 38.97 64.1828 37.668 64.1828C36.562 64.1828 35.498 63.8048 34.798 63.2168L34.014 64.6308C34.924 65.3448 36.31 65.7648 37.696 65.7648C40.328 65.7648 41.574 64.3368 41.574 62.6848C41.574 61.2148 40.636 60.1088 38.788 59.8708ZM46.2684 55.6848C44.2664 55.6848 42.6844 56.9168 42.6844 58.8628C42.6844 60.6968 44.1264 61.8728 46.0584 61.8728C47.1504 61.8728 48.0884 61.5368 48.6764 60.8508V60.8648C48.6764 63.0908 47.5144 64.2388 45.6664 64.2388C44.9804 64.2388 44.3364 64.1128 43.8044 63.7628L43.1324 65.1348C43.7904 65.5548 44.7284 65.7648 45.7084 65.7648C48.5504 65.7648 50.5104 63.9168 50.5104 60.5568C50.5104 57.4068 48.9424 55.6848 46.2684 55.6848ZM46.4084 60.4448C45.2184 60.4448 44.4484 59.8008 44.4484 58.7788C44.4484 57.7568 45.2324 57.1128 46.3664 57.1128C47.6684 57.1128 48.3964 57.8408 48.3964 58.7648C48.3964 59.7308 47.5844 60.4448 46.4084 60.4448ZM60.6778 61.8588H58.9418V59.8848H57.2338V61.8588H54.0278L58.5778 55.8248H56.6318L51.8018 62.1388V63.3988H57.1778V65.6248H58.9418V63.3988H60.6778V61.8588ZM64.8794 55.6848C62.8774 55.6848 61.2954 56.9168 61.2954 58.8628C61.2954 60.6968 62.7374 61.8728 64.6694 61.8728C65.7614 61.8728 66.6994 61.5368 67.2874 60.8508V60.8648C67.2874 63.0908 66.1254 64.2388 64.2774 64.2388C63.5914 64.2388 62.9474 64.1128 62.4154 63.7628L61.7434 65.1348C62.4014 65.5548 63.3394 65.7648 64.3194 65.7648C67.1614 65.7648 69.1214 63.9168 69.1214 60.5568C69.1214 57.4068 67.5534 55.6848 64.8794 55.6848ZM65.0194 60.4448C63.8294 60.4448 63.0594 59.8008 63.0594 58.7788C63.0594 57.7568 63.8434 57.1128 64.9774 57.1128C66.2794 57.1128 67.0074 57.8408 67.0074 58.7648C67.0074 59.7308 66.1954 60.4448 65.0194 60.4448ZM73.6187 59.6188H72.6807L72.8907 57.3508H77.1047V55.8248H71.3507L70.8467 61.1588H73.2127C75.2427 61.1588 75.8447 61.7468 75.8447 62.6848C75.8447 63.6088 75.0747 64.1828 73.7727 64.1828C72.6667 64.1828 71.6027 63.8048 70.8887 63.2168L70.1187 64.6308C71.0147 65.3448 72.4147 65.7648 73.8007 65.7648C76.4327 65.7648 77.6787 64.3368 77.6787 62.6148C77.6787 60.8788 76.5167 59.6188 73.6187 59.6188Z" fill="white"/>
</g>
<defs>
<clipPath id="clip0_1_342">
<rect width="239" height="29.9997" fill="white" transform="translate(0 0.25)"/>
</clipPath>
<clipPath id="clip1_1_342">
<rect width="24" height="29.9997" fill="white" transform="translate(0 0.25)"/>
</clipPath>
</defs>
</svg>
