<svg width="239" height="30" viewBox="0 0 239 30" fill="none" xmlns="http://www.w3.org/2000/svg">
<g clip-path="url(#clip0_1_338)">
<g clip-path="url(#clip1_1_338)">
<path d="M18.8482 14.9767C18.7369 14.8652 18.6046 14.7767 18.459 14.7163C18.3135 14.656 18.1574 14.6249 17.9998 14.6249C17.8422 14.6249 17.6862 14.656 17.5406 14.7163C17.395 14.7767 17.2628 14.8652 17.1514 14.9767L15.2386 16.8895C14.3519 16.6255 12.6971 16.0255 11.6483 14.9767C10.5995 13.9279 9.9995 12.2731 9.7355 11.3864L11.6483 9.47357C11.7598 9.36223 11.8483 9.22998 11.9087 9.08441C11.969 8.93883 12.0001 8.78278 12.0001 8.62518C12.0001 8.46758 11.969 8.31153 11.9087 8.16595C11.8483 8.02038 11.7598 7.88813 11.6483 7.77679L6.84833 2.97684C6.73698 2.8653 6.60474 2.77682 6.45916 2.71645C6.31359 2.65607 6.15754 2.625 5.99994 2.625C5.84234 2.625 5.68629 2.65607 5.54071 2.71645C5.39513 2.77682 5.26289 2.8653 5.15155 2.97684L1.89718 6.23121C1.44118 6.6872 1.18439 7.31359 1.19399 7.95319C1.22159 9.66197 1.67398 15.5971 6.35153 20.2747C11.0291 24.9522 16.9642 25.4034 18.6742 25.4322H18.7078C19.3414 25.4322 19.9402 25.1826 20.3938 24.729L23.6482 21.4747C23.7597 21.3633 23.8482 21.2311 23.9086 21.0855C23.9689 20.9399 24 20.7839 24 20.6263C24 20.4687 23.9689 20.3126 23.9086 20.167C23.8482 20.0215 23.7597 19.8892 23.6482 19.7779L18.8482 14.9767ZM18.6958 23.031C17.1982 23.0058 12.0743 22.6038 8.04832 18.5767C4.00916 14.5375 3.61796 9.39557 3.59396 7.92799L5.99994 5.52201L9.10311 8.62518L7.55152 10.1768C7.41048 10.3177 7.30678 10.4916 7.24979 10.6826C7.1928 10.8737 7.18432 11.076 7.22513 11.2712C7.25392 11.4092 7.95832 14.6815 9.9503 16.6735C11.9423 18.6655 15.2146 19.3699 15.3526 19.3987C15.5477 19.4406 15.7502 19.4328 15.9414 19.376C16.1327 19.3192 16.3065 19.2151 16.447 19.0735L17.9998 17.5219L21.103 20.6251L18.6958 23.031V23.031Z" fill="#8EC2F2"/>
</g>
<path d="M36.884 19.716H38.55C37.388 17.672 36.898 15.558 36.898 13.164C36.898 10.77 37.388 8.656 38.55 6.612H36.884C35.792 8.278 35.176 10.588 35.176 13.164C35.176 15.74 35.792 18.022 36.884 19.716ZM48.1321 13.234H46.3961V11.26H44.6881V13.234H41.4821L46.0321 7.2H44.0861L39.2561 13.514V14.774H44.6321V17H46.3961V14.774H48.1321V13.234ZM55.5907 11.848C56.3887 11.414 56.8367 10.714 56.8367 9.79C56.8367 8.11 55.3528 7.06 53.1687 7.06C50.9987 7.06 49.5287 8.11 49.5287 9.79C49.5287 10.714 49.9627 11.414 50.7467 11.848C49.7387 12.31 49.1787 13.108 49.1787 14.186C49.1787 16.006 50.7327 17.14 53.1687 17.14C55.6047 17.14 57.1868 16.006 57.1868 14.186C57.1868 13.108 56.6128 12.31 55.5907 11.848ZM53.1687 8.488C54.2888 8.488 55.0447 8.992 55.0447 9.874C55.0447 10.714 54.3307 11.246 53.1687 11.246C52.0207 11.246 51.3207 10.714 51.3207 9.874C51.3207 8.992 52.0487 8.488 53.1687 8.488ZM53.1687 15.712C51.8247 15.712 51.0127 15.124 51.0127 14.13C51.0127 13.164 51.8247 12.562 53.1687 12.562C54.5128 12.562 55.3528 13.164 55.3528 14.13C55.3528 15.124 54.5128 15.712 53.1687 15.712ZM62.6556 17.14C64.9936 17.14 66.7576 15.32 66.7576 12.1C66.7576 8.88 64.9936 7.06 62.6556 7.06C60.3316 7.06 58.5676 8.88 58.5676 12.1C58.5676 15.32 60.3316 17.14 62.6556 17.14ZM62.6556 15.558C61.3256 15.558 60.4016 14.466 60.4016 12.1C60.4016 9.734 61.3256 8.642 62.6556 8.642C63.9996 8.642 64.9236 9.734 64.9236 12.1C64.9236 14.466 63.9996 15.558 62.6556 15.558ZM69.5455 19.716C70.6515 18.022 71.2535 15.74 71.2535 13.164C71.2535 10.588 70.6515 8.278 69.5455 6.612H67.8795C69.0415 8.656 69.5455 10.77 69.5455 13.164C69.5455 15.558 69.0415 17.672 67.8795 19.716H69.5455ZM80.3898 10.994H79.4518L79.6618 8.726H83.8758V7.2H78.1218L77.6178 12.534H79.9838C82.0138 12.534 82.6158 13.122 82.6158 14.06C82.6158 14.984 81.8458 15.558 80.5438 15.558C79.4378 15.558 78.3738 15.18 77.6598 14.592L76.8898 16.006C77.7858 16.72 79.1858 17.14 80.5718 17.14C83.2038 17.14 84.4498 15.712 84.4498 13.99C84.4498 12.254 83.2878 10.994 80.3898 10.994ZM88.6972 10.994H87.7592L87.9692 8.726H92.1832V7.2H86.4292L85.9252 12.534H88.2912C90.3212 12.534 90.9232 13.122 90.9232 14.06C90.9232 14.984 90.1532 15.558 88.8512 15.558C87.7452 15.558 86.6812 15.18 85.9672 14.592L85.1972 16.006C86.0932 16.72 87.4932 17.14 88.8792 17.14C91.5112 17.14 92.7572 15.712 92.7572 13.99C92.7572 12.254 91.5952 10.994 88.6972 10.994ZM97.0047 10.994H96.0667L96.2767 8.726H100.491V7.2H94.7367L94.2327 12.534H96.5987C98.6287 12.534 99.2307 13.122 99.2307 14.06C99.2307 14.984 98.4607 15.558 97.1587 15.558C96.0527 15.558 94.9887 15.18 94.2747 14.592L93.5047 16.006C94.4007 16.72 95.8007 17.14 97.1867 17.14C99.8187 17.14 101.065 15.712 101.065 13.99C101.065 12.254 99.9027 10.994 97.0047 10.994ZM102.468 13.836H106.318V12.38H102.468V13.836ZM112.058 17.14C114.396 17.14 116.16 15.32 116.16 12.1C116.16 8.88 114.396 7.06 112.058 7.06C109.734 7.06 107.97 8.88 107.97 12.1C107.97 15.32 109.734 17.14 112.058 17.14ZM112.058 15.558C110.728 15.558 109.804 14.466 109.804 12.1C109.804 9.734 110.728 8.642 112.058 8.642C113.402 8.642 114.326 9.734 114.326 12.1C114.326 14.466 113.402 15.558 112.058 15.558ZM117.017 7.2V8.726H119.089V17H120.909V7.2H117.017ZM127.141 17.14C129.479 17.14 131.243 15.32 131.243 12.1C131.243 8.88 129.479 7.06 127.141 7.06C124.817 7.06 123.053 8.88 123.053 12.1C123.053 15.32 124.817 17.14 127.141 17.14ZM127.141 15.558C125.811 15.558 124.887 14.466 124.887 12.1C124.887 9.734 125.811 8.642 127.141 8.642C128.485 8.642 129.409 9.734 129.409 12.1C129.409 14.466 128.485 15.558 127.141 15.558ZM136.708 11.246L139.088 8.418V7.2H132.41V8.726H136.862L134.636 11.372V12.618H135.532C137.016 12.618 137.66 13.192 137.66 14.074C137.66 14.984 136.89 15.558 135.588 15.558C134.482 15.558 133.418 15.18 132.718 14.592L131.934 16.006C132.844 16.72 134.23 17.14 135.616 17.14C138.248 17.14 139.494 15.712 139.494 14.06C139.494 12.59 138.556 11.484 136.708 11.246Z" fill="white"/>
</g>
<defs>
<clipPath id="clip0_1_338">
<rect width="239" height="29.25" fill="white"/>
</clipPath>
<clipPath id="clip1_1_338">
<rect width="24" height="24" fill="white" transform="translate(0 2.625)"/>
</clipPath>
</defs>
</svg>
