<svg width="239" height="30" viewBox="0 0 239 30" fill="none" xmlns="http://www.w3.org/2000/svg">
<g clip-path="url(#clip0_1_347)">
<g clip-path="url(#clip1_1_347)">
<path d="M23.71 3.21646C23.575 3.07676 23.4045 2.98004 23.2185 2.93766C23.0325 2.89529 22.8388 2.90903 22.66 2.97726L0.660001 11.2973C0.470269 11.3721 0.306921 11.5052 0.191652 11.6789C0.0763829 11.8526 0.0146484 12.0586 0.0146484 12.2697C0.0146484 12.4807 0.0763829 12.6867 0.191652 12.8604C0.306921 13.0341 0.470269 13.1672 0.660001 13.2421L10.26 17.2357L14.1 27.2197C14.1721 27.4083 14.2958 27.5709 14.4557 27.6873C14.6157 27.8037 14.8049 27.8689 15 27.8749C15.2021 27.8705 15.3982 27.8026 15.5624 27.6801C15.7266 27.5576 15.8513 27.3862 15.92 27.1885L23.92 4.30846C23.9881 4.12446 24.0046 3.92411 23.9674 3.73076C23.9302 3.53742 23.8409 3.35905 23.71 3.21646V3.21646ZM15 23.9229L12.21 16.6429L17 11.6613L15.59 10.1949L10.76 15.2181L3.8 12.2749L21.33 5.69166L15 23.9229Z" fill="#8EC2F2"/>
</g>
<path d="M40.72 6.86176V10.6978C40.132 10.0118 39.278 9.68976 38.312 9.68976C36.142 9.68976 34.532 11.1878 34.532 13.5118C34.532 15.8358 36.142 17.3478 38.312 17.3478C39.334 17.3478 40.202 16.9978 40.79 16.2838V17.2498H42.47V6.86176H40.72ZM38.522 15.8498C37.262 15.8498 36.296 14.9398 36.296 13.5118C36.296 12.0838 37.262 11.1738 38.522 11.1738C39.782 11.1738 40.748 12.0838 40.748 13.5118C40.748 14.9398 39.782 15.8498 38.522 15.8498ZM51.9873 13.5538C51.9873 11.2158 50.3913 9.68976 48.2073 9.68976C45.9813 9.68976 44.3433 11.2858 44.3433 13.5118C44.3433 15.7378 45.9673 17.3478 48.4733 17.3478C49.7613 17.3478 50.8113 16.9278 51.4833 16.1298L50.5453 15.0518C50.0133 15.5978 49.3553 15.8638 48.5153 15.8638C47.2133 15.8638 46.3033 15.1638 46.0933 14.0718H51.9593C51.9733 13.9038 51.9873 13.6938 51.9873 13.5538ZM48.2073 11.0898C49.3553 11.0898 50.1813 11.8318 50.3213 12.9098H46.0793C46.2473 11.8178 47.0733 11.0898 48.2073 11.0898ZM58.0123 9.68976C57.0603 9.68976 56.2203 10.0118 55.6183 10.6838V6.86176H53.8683V17.2498H55.5343V16.2838C56.1223 16.9978 56.9903 17.3478 58.0123 17.3478C60.1963 17.3478 61.8063 15.8358 61.8063 13.5118C61.8063 11.1878 60.1963 9.68976 58.0123 9.68976ZM57.8163 15.8498C56.5563 15.8498 55.5903 14.9398 55.5903 13.5118C55.5903 12.0838 56.5563 11.1738 57.8163 11.1738C59.0763 11.1738 60.0283 12.0838 60.0283 13.5118C60.0283 14.9398 59.0763 15.8498 57.8163 15.8498ZM65.332 10.8658V9.77376H63.666V17.2498H65.416V13.6238C65.416 12.0978 66.256 11.3138 67.586 11.3138C67.712 11.3138 67.838 11.3278 67.992 11.3558V9.68976C66.746 9.68976 65.836 10.0818 65.332 10.8658ZM72.4915 9.68976C71.2875 9.68976 70.1255 9.99776 69.3275 10.6138L70.0135 11.8878C70.5735 11.4258 71.4415 11.1458 72.2815 11.1458C73.5275 11.1458 74.1435 11.7478 74.1435 12.7698V12.8818H72.2115C69.9435 12.8818 69.1035 13.8618 69.1035 15.1078C69.1035 16.4098 70.1815 17.3478 71.8895 17.3478C73.0095 17.3478 73.8215 16.9838 74.2415 16.3398V17.2498H75.8935V12.8678C75.8935 10.7118 74.6475 9.68976 72.4915 9.68976ZM72.2535 16.0738C71.3575 16.0738 70.8255 15.6678 70.8255 15.0378C70.8255 14.4918 71.1475 14.0438 72.3375 14.0438H74.1435V14.9118C73.8495 15.6818 73.1075 16.0738 72.2535 16.0738ZM78.8994 17.3478C79.5294 17.3478 80.0474 16.8578 80.0474 16.1858C80.0474 15.4858 79.5294 15.0238 78.8994 15.0238C78.2694 15.0238 77.7514 15.4858 77.7514 16.1858C77.7514 16.8578 78.2694 17.3478 78.8994 17.3478ZM86.1994 9.68976C85.1634 9.68976 84.2814 10.0258 83.7074 10.6418V6.86176H81.9574V17.2498H83.7074V13.4698C83.7074 11.9718 84.5474 11.2158 85.7934 11.2158C86.9134 11.2158 87.5714 11.8598 87.5714 13.1898V17.2498H89.3214V12.9658C89.3214 10.7118 87.9914 9.68976 86.1994 9.68976ZM95.1697 17.3478C97.4937 17.3478 99.1597 15.7518 99.1597 13.5118C99.1597 11.2718 97.4937 9.68976 95.1697 9.68976C92.8737 9.68976 91.1937 11.2718 91.1937 13.5118C91.1937 15.7518 92.8737 17.3478 95.1697 17.3478ZM95.1697 15.8498C93.9097 15.8498 92.9577 14.9398 92.9577 13.5118C92.9577 12.0838 93.9097 11.1738 95.1697 11.1738C96.4437 11.1738 97.3957 12.0838 97.3957 13.5118C97.3957 14.9398 96.4437 15.8498 95.1697 15.8498ZM101.033 17.2498H102.783V6.86176H101.033V17.2498ZM109.653 15.5978C109.387 15.8078 109.037 15.9058 108.673 15.9058C108.001 15.9058 107.637 15.5138 107.637 14.7858V11.2298H109.639V9.82976H107.637V8.12176H105.887V9.82976H104.655V11.2298H105.887V14.8278C105.887 16.4798 106.825 17.3478 108.463 17.3478C109.093 17.3478 109.723 17.1798 110.143 16.8438L109.653 15.5978ZM117.943 7.32376C113.939 7.32376 111.251 10.0258 111.251 13.6938C111.251 17.4038 113.911 20.1058 117.887 20.1058C118.923 20.1058 120.127 19.8818 120.981 19.4478L120.603 18.3278C119.749 18.7618 118.741 18.9438 117.887 18.9438C114.667 18.9438 112.539 16.7878 112.539 13.6938C112.539 10.6418 114.695 8.47176 117.943 8.47176C121.135 8.47176 123.319 10.4878 123.319 13.4838C123.319 15.1358 122.899 16.0178 122.143 16.0178C121.751 16.0178 121.415 15.7798 121.415 15.0658V10.3058H119.861V11.2158C119.315 10.5578 118.503 10.2218 117.523 10.2218C115.591 10.2218 114.163 11.6918 114.163 13.7638C114.163 15.8638 115.591 17.3338 117.523 17.3338C118.643 17.3338 119.497 16.9138 120.043 16.1158C120.281 16.9138 120.925 17.3338 121.821 17.3338C123.501 17.3338 124.509 15.8778 124.509 13.4558C124.509 9.88576 121.807 7.32376 117.943 7.32376ZM117.817 15.9758C116.599 15.9758 115.745 15.1218 115.745 13.7638C115.745 12.4198 116.599 11.5798 117.817 11.5798C118.993 11.5798 119.889 12.3778 119.889 13.7638C119.889 15.1638 118.993 15.9758 117.817 15.9758ZM133.489 13.5538C133.489 11.2158 131.893 9.68976 129.709 9.68976C127.483 9.68976 125.845 11.2858 125.845 13.5118C125.845 15.7378 127.469 17.3478 129.975 17.3478C131.263 17.3478 132.313 16.9278 132.985 16.1298L132.047 15.0518C131.515 15.5978 130.857 15.8638 130.017 15.8638C128.715 15.8638 127.805 15.1638 127.595 14.0718H133.461C133.475 13.9038 133.489 13.6938 133.489 13.5538ZM129.709 11.0898C130.857 11.0898 131.683 11.8318 131.823 12.9098H127.581C127.749 11.8178 128.575 11.0898 129.709 11.0898ZM141.899 17.2498L138.973 13.4278L141.773 9.77376H139.883L138.049 12.2238L136.215 9.77376H134.269L137.055 13.4558L134.143 17.2498H136.075L138.007 14.6598L139.925 17.2498H141.899ZM146.11 9.68976C144.906 9.68976 143.744 9.99776 142.946 10.6138L143.632 11.8878C144.192 11.4258 145.06 11.1458 145.9 11.1458C147.146 11.1458 147.762 11.7478 147.762 12.7698V12.8818H145.83C143.562 12.8818 142.722 13.8618 142.722 15.1078C142.722 16.4098 143.8 17.3478 145.508 17.3478C146.628 17.3478 147.44 16.9838 147.86 16.3398V17.2498H149.512V12.8678C149.512 10.7118 148.266 9.68976 146.11 9.68976ZM145.872 16.0738C144.976 16.0738 144.444 15.6678 144.444 15.0378C144.444 14.4918 144.766 14.0438 145.956 14.0438H147.762V14.9118C147.468 15.6818 146.726 16.0738 145.872 16.0738ZM161.394 9.68976C160.204 9.68976 159.196 10.1658 158.594 10.9358C158.076 10.0958 157.166 9.68976 156.074 9.68976C155.052 9.68976 154.184 10.0538 153.624 10.7258V9.77376H151.958V17.2498H153.708V13.4558C153.708 11.9718 154.492 11.2158 155.654 11.2158C156.718 11.2158 157.334 11.8598 157.334 13.1898V17.2498H159.084V13.4558C159.084 11.9718 159.882 11.2158 161.03 11.2158C162.094 11.2158 162.71 11.8598 162.71 13.1898V17.2498H164.46V12.9658C164.46 10.7118 163.2 9.68976 161.394 9.68976ZM171.04 9.68976C170.018 9.68976 169.15 10.0398 168.562 10.7538V9.77376H166.896V19.9658H168.646V16.3398C169.248 17.0258 170.088 17.3478 171.04 17.3478C173.224 17.3478 174.834 15.8358 174.834 13.5118C174.834 11.2018 173.224 9.68976 171.04 9.68976ZM170.844 15.8498C169.584 15.8498 168.618 14.9398 168.618 13.5118C168.618 12.0838 169.584 11.1738 170.844 11.1738C172.104 11.1738 173.056 12.0838 173.056 13.5118C173.056 14.9398 172.104 15.8498 170.844 15.8498ZM176.694 17.2498H178.444V6.86176H176.694V17.2498ZM187.969 13.5538C187.969 11.2158 186.373 9.68976 184.189 9.68976C181.963 9.68976 180.325 11.2858 180.325 13.5118C180.325 15.7378 181.949 17.3478 184.455 17.3478C185.743 17.3478 186.793 16.9278 187.465 16.1298L186.527 15.0518C185.995 15.5978 185.337 15.8638 184.497 15.8638C183.195 15.8638 182.285 15.1638 182.075 14.0718H187.941C187.955 13.9038 187.969 13.6938 187.969 13.5538ZM184.189 11.0898C185.337 11.0898 186.163 11.8318 186.303 12.9098H182.061C182.229 11.8178 183.055 11.0898 184.189 11.0898ZM190.41 17.3478C191.04 17.3478 191.558 16.8578 191.558 16.1858C191.558 15.4858 191.04 15.0238 190.41 15.0238C189.78 15.0238 189.262 15.4858 189.262 16.1858C189.262 16.8578 189.78 17.3478 190.41 17.3478ZM196.761 17.3478C198.217 17.3478 199.379 16.7178 199.953 15.5978L198.609 14.8138C198.161 15.5278 197.489 15.8498 196.747 15.8498C195.459 15.8498 194.479 14.9678 194.479 13.5118C194.479 12.0698 195.459 11.1738 196.747 11.1738C197.489 11.1738 198.161 11.4958 198.609 12.2098L199.953 11.4258C199.379 10.2918 198.217 9.68976 196.761 9.68976C194.395 9.68976 192.715 11.2718 192.715 13.5118C192.715 15.7518 194.395 17.3478 196.761 17.3478ZM204.916 17.3478C207.24 17.3478 208.906 15.7518 208.906 13.5118C208.906 11.2718 207.24 9.68976 204.916 9.68976C202.62 9.68976 200.94 11.2718 200.94 13.5118C200.94 15.7518 202.62 17.3478 204.916 17.3478ZM204.916 15.8498C203.656 15.8498 202.704 14.9398 202.704 13.5118C202.704 12.0838 203.656 11.1738 204.916 11.1738C206.19 11.1738 207.142 12.0838 207.142 13.5118C207.142 14.9398 206.19 15.8498 204.916 15.8498ZM220.216 9.68976C219.026 9.68976 218.018 10.1658 217.416 10.9358C216.898 10.0958 215.988 9.68976 214.896 9.68976C213.874 9.68976 213.006 10.0538 212.446 10.7258V9.77376H210.78V17.2498H212.53V13.4558C212.53 11.9718 213.314 11.2158 214.476 11.2158C215.54 11.2158 216.156 11.8598 216.156 13.1898V17.2498H217.906V13.4558C217.906 11.9718 218.704 11.2158 219.852 11.2158C220.916 11.2158 221.532 11.8598 221.532 13.1898V17.2498H223.282V12.9658C223.282 10.7118 222.022 9.68976 220.216 9.68976Z" fill="white"/>
</g>
<defs>
<clipPath id="clip0_1_347">
<rect width="239" height="29.25" fill="white" transform="translate(0 0.249756)"/>
</clipPath>
<clipPath id="clip1_1_347">
<rect width="24" height="26" fill="white" transform="translate(0 1.87476)"/>
</clipPath>
</defs>
</svg>
